<?xml version="1.0" standalone="no"?><!DOCTYPE svg PUBLIC "-//W3C//DTD SVG 1.1//EN" "http://www.w3.org/Graphics/SVG/1.1/DTD/svg11.dtd"><svg t="1575518054428" class="icon" viewBox="0 0 1024 1024" version="1.1" xmlns="http://www.w3.org/2000/svg" p-id="2092" xmlns:xlink="http://www.w3.org/1999/xlink" width="200" height="200"><defs><style type="text/css"></style></defs><path d="M901.70368 463.72864l-55.86944-55.8592c-13.2608-13.2608-24.12544-39.46496-24.12544-58.25536v-79.0016c0-37.5808-30.69952-68.28032-68.27008-68.3008H674.4064c-18.76992 0-45.0048-10.88512-58.2656-24.13568l-55.8592-55.8592c-26.54208-26.54208-70.00064-26.54208-96.54272 0l-55.8592 55.90016c-13.27104 13.2608-39.53664 24.1152-58.2656 24.1152h-79.0016c-37.5296 0-68.27008 30.69952-68.27008 68.28032v79.0016c0 18.71872-10.86464 45.0048-24.12544 58.25536l-55.86944 55.8592c-26.56256 26.54208-26.56256 70.00064 0 96.58368l55.86944 55.8592c13.27104 13.2608 24.12544 39.53664 24.12544 58.25536v79.0016c0 37.53984 30.74048 68.28032 68.27008 68.28032h79.0016c18.76992 0 45.0048 10.86464 58.2656 24.1152l55.8592 55.87968c26.54208 26.5216 70.00064 26.5216 96.54272 0L616.1408 845.824c13.27104-13.2608 39.49568-24.1152 58.2656-24.1152h79.03232c37.57056 0 68.27008-30.74048 68.27008-68.28032v-79.0016c0-18.80064 10.87488-45.0048 24.12544-58.25536l55.86944-55.8592c26.5216-26.58304 26.5216-70.0416 0-96.58368zM457.82016 665.61024L307.2 514.9696l48.27136-48.26112 102.35904 102.35904 210.70848-210.65728L716.8 406.67136 457.82016 665.61024z" p-id="2093"></path></svg>